GRF
version=1
nRows=64
nColumns=10
inDegrees=no
endheader
time	1_ground_force_vx	1_ground_force_vy	1_ground_force_vz	1_ground_force_px	1_ground_force_py	1_ground_force_pz	1_ground_torque_x	1_ground_torque_y	1_ground_torque_z
      0.00000000	      0.96659845	    758.00878906	      1.36554455	      0.36954377	      0.00000000	      0.19803394	      0.00000000	      0.81665688	      0.00000000
      0.00100000	      0.89951902	    758.45327069	      1.30899111	      0.36949152	      0.00000000	      0.19798892	      0.00000000	      0.78848872	      0.00000000
      0.00200000	      0.87100933	    758.68013673	      1.27816317	      0.36947184	      0.00000000	      0.19795676	      0.00000000	      0.76355809	      0.00000000
      0.00300000	      0.87844498	    758.58005470	      1.28185578	      0.36948668	      0.00000000	      0.19794903	      0.00000000	      0.74495948	     -0.00000000
      0.00400000	      0.87296502	    758.34185927	      1.29236173	      0.36951968	      0.00000000	      0.19794551	      0.00000000	      0.72971439	     -0.00000000
      0.00500000	      0.82098884	    758.12811254	      1.27777464	      0.36955675	      0.00000000	      0.19793189	      0.00000000	      0.71734021	     -0.00000000
      0.00600000	      0.72089442	    758.04124639	      1.22957113	      0.36958680	      0.00000000	      0.19790109	      0.00000000	      0.71025230	     -0.00000000
      0.00700000	      0.59693733	    757.97682303	      1.16331817	      0.36963111	      0.00000000	      0.19784239	      0.00000000	      0.70839473	     -0.00000000
      0.00800000	      0.51236569	    757.83427679	      1.09410537	      0.36967840	      0.00000000	      0.19777908	      0.00000000	      0.71153514	     -0.00000000
      0.00900000	      0.49113755	    757.57697008	      1.04693934	      0.36971474	      0.00000000	      0.19772743	      0.00000000	      0.71813678	     -0.00000000
      0.01000000	      0.54613819	    757.34009317	      1.03144520	      0.36973304	      0.00000000	      0.19769718	     -0.00000000	      0.72321053	     -0.00000000
      0.01100000	      0.62713641	    757.20574223	      1.05593288	      0.36973575	      0.00000000	      0.19768781	     -0.00000000	      0.72282954	     -0.00000000
      0.01200000	      0.69975577	    757.24221580	      1.12683099	      0.36973924	      0.00000000	      0.19767806	     -0.00000000	      0.71808592	      0.00000000
      0.01300000	      0.74206092	    757.40862790	      1.20387315	      0.36973575	      0.00000000	      0.19765607	     -0.00000000	      0.71179024	      0.00000000
      0.01400000	      0.75287011	    757.60237990	      1.24859451	      0.36972420	      0.00000000	      0.19762174	     -0.00000000	      0.70732524	     -0.00000000
      0.01500000	      0.73094275	    757.71225639	      1.24492038	      0.36972028	      0.00000000	      0.19758861	     -0.00000000	      0.70857698	     -0.00000000
      0.01600000	      0.67896789	    757.63434900	      1.21370086	      0.36972938	      0.00000000	      0.19757072	     -0.00000000	      0.71556814	     -0.00000000
      0.01700000	      0.61127074	    757.40613831	      1.17260482	      0.36974397	      0.00000000	      0.19756770	     -0.00000000	      0.72208096	     -0.00000000
      0.01800000	      0.56496258	    757.06844279	      1.14966398	      0.36976390	      0.00000000	      0.19757245	     -0.00000000	      0.73369063	     -0.00000000
      0.01900000	      0.53254454	    756.80043777	      1.13259223	      0.36975896	      0.00000000	      0.19757298	     -0.00000000	      0.74230146	     -0.00000000
      0.02000000	      0.52139034	    756.72951970	      1.13427077	      0.36973987	      0.00000000	      0.19756731	     -0.00000000	      0.75158035	     -0.00000000
      0.02100000	      0.53375839	    756.92213357	      1.15745327	      0.36971866	      0.00000000	      0.19755271	      0.00000000	      0.76003490	     -0.00000000
      0.02200000	      0.57950860	    757.17045249	      1.18395550	      0.36971706	      0.00000000	      0.19752096	      0.00000000	      0.76148955	     -0.00000000
      0.02300000	      0.64015323	    757.39153013	      1.19284296	      0.36972835	      0.00000000	      0.19747433	      0.00000000	      0.75630932	     -0.00000000
      0.02400000	      0.69886516	    757.37323952	      1.16889238	      0.36975104	      0.00000000	      0.19742512	      0.00000000	      0.74641382	      0.00000000
      0.02500000	      0.72872581	    757.13495346	      1.13008586	      0.36977289	      0.00000000	      0.19738223	      0.00000000	      0.73144399	      0.00000000
      0.02600000	      0.72305282	    756.82599409	      1.10690896	      0.36980471	      0.00000000	      0.19735418	      0.00000000	      0.72110270	      0.00000000
      0.02700000	      0.70115908	    756.65800252	      1.12585438	      0.36983526	      0.00000000	      0.19732860	      0.00000000	      0.71760181	      0.00000000
      0.02800000	      0.68751269	    756.76621233	      1.17737361	      0.36984517	      0.00000000	      0.19730300	      0.00000000	      0.72482399	      0.00000000
      0.02900000	      0.69447196	    757.10430278	      1.23791282	      0.36982730	      0.00000000	      0.19727664	      0.00000000	      0.73732244	      0.00000000
      0.03000000	      0.73949092	    757.35938847	      1.27222599	      0.36981718	      0.00000000	      0.19726695	      0.00000000	      0.74898867	      0.00000000
      0.03100000	      0.79844967	    757.42069666	      1.29155731	      0.36983479	      0.00000000	      0.19727039	     -0.00000000	      0.75568773	     -0.00000000
      0.03200000	      0.85130751	    757.33476035	      1.31378141	      0.36989055	      0.00000000	      0.19727229	     -0.00000000	      0.75897341	     -0.00000000
      0.03300000	      0.89382344	    757.16462567	      1.35296075	      0.36996925	      0.00000000	      0.19726418	     -0.00000000	      0.76424617	     -0.00000000
      0.03400000	      0.90649450	    757.00992268	      1.38160508	      0.37003678	      0.00000000	      0.19723271	      0.00000000	      0.76752992	     -0.00000000
      0.03500000	      0.90115416	    756.90675956	      1.37246113	      0.37005241	      0.00000000	      0.19718960	      0.00000000	      0.76594442	     -0.00000000
      0.03600000	      0.86224307	    756.83965923	      1.34489025	      0.37001243	      0.00000000	      0.19715290	      0.00000000	      0.76405060	     -0.00000000
      0.03700000	      0.80592404	    756.84669111	      1.33240438	      0.36992743	      0.00000000	      0.19711911	      0.00000000	      0.76566012	     -0.00000000
      0.03800000	      0.77329154	    756.87386685	      1.38144689	      0.36986107	      0.00000000	      0.19709562	      0.00000000	      0.77518074	     -0.00000000
      0.03900000	      0.77725661	    756.88946423	      1.46985833	      0.36983678	      0.00000000	      0.19708848	      0.00000000	      0.78631841	     -0.00000000
      0.04000000	      0.80917940	    756.84855659	      1.53178121	      0.36985436	      0.00000000	      0.19708987	     -0.00000000	      0.78469488	     -0.00000000
      0.04100000	      0.82637071	    756.75887956	      1.54394979	      0.36987946	      0.00000000	      0.19709909	      0.00000000	      0.76723208	      0.00000000
      0.04200000	      0.80565293	    756.60907378	      1.53511140	      0.36989955	      0.00000000	      0.19709849	      0.00000000	      0.74215463	      0.00000000
      0.04300000	      0.77005589	    756.44809840	      1.54759177	      0.36991312	      0.00000000	      0.19707650	      0.00000000	      0.72270544	      0.00000000
      0.04400000	      0.72785599	    756.22800106	      1.61291380	      0.36994074	      0.00000000	      0.19705024	      0.00000000	      0.71756000	      0.00000000
      0.04500000	      0.69069355	    756.10026192	      1.68224155	      0.36996755	      0.00000000	      0.19703135	      0.00000000	      0.72052107	      0.00000000
      0.04600000	      0.65391657	    756.06284186	      1.71734809	      0.36999417	      0.00000000	      0.19700816	      0.00000000	      0.72557984	      0.00000000
      0.04700000	      0.62161840	    756.33143940	      1.70074053	      0.36997143	      0.00000000	      0.19697167	      0.00000000	      0.72247435	      0.00000000
      0.04800000	      0.59967226	    756.80119560	      1.66462056	      0.36991510	      0.00000000	      0.19692130	      0.00000000	      0.71284932	      0.00000000
      0.04900000	      0.57977493	    757.27000026	      1.65249963	      0.36984190	      0.00000000	      0.19687708	     -0.00000000	      0.70402891	     -0.00000000
      0.05000000	      0.55549232	    757.58330039	      1.68724636	      0.36977872	      0.00000000	      0.19685639	     -0.00000000	      0.70005349	     -0.00000000
      0.05100000	      0.53023997	    757.62394962	      1.74815120	      0.36975859	      0.00000000	      0.19684908	      0.00000000	      0.69885882	      0.00000000
      0.05200000	      0.51183964	    757.42161165	      1.82017454	      0.36978937	      0.00000000	      0.19684848	      0.00000000	      0.69443632	      0.00000000
      0.05300000	      0.50819156	    757.14474058	      1.87014773	      0.36984212	      0.00000000	      0.19684162	      0.00000000	      0.67722608	      0.00000000
      0.05400000	      0.49202015	    756.82428699	      1.89953205	      0.36990962	      0.00000000	      0.19682298	      0.00000000	      0.65631135	      0.00000000
      0.05500000	      0.46870490	    756.57049391	      1.91668785	      0.36993947	      0.00000000	      0.19679935	      0.00000000	      0.64164585	      0.00000000
      0.05600000	      0.42326490	    756.41816797	      1.92203579	      0.36992491	      0.00000000	      0.19676719	      0.00000000	      0.63632813	      0.00000000
      0.05700000	      0.38479968	    756.35961583	      1.94910387	      0.36988612	      0.00000000	      0.19674208	      0.00000000	      0.64064187	      0.00000000
      0.05800000	      0.37398487	    756.38769123	      2.00826715	      0.36984826	      0.00000000	      0.19672178	      0.00000000	      0.64676358	      0.00000000
      0.05900000	      0.39464623	    756.48507289	      2.06597162	      0.36983023	      0.00000000	      0.19670114	      0.00000000	      0.64813404	      0.00000000
      0.06000000	      0.43224022	    756.63790034	      2.11446977	      0.36984528	      0.00000000	      0.19668734	      0.00000000	      0.65037952	      0.00000000
      0.06100000	      0.47407742	    756.84268107	      2.12868363	      0.36986801	      0.00000000	      0.19668036	     -0.00000000	      0.65445776	     -0.00000000
      0.06200000	      0.50052403	    757.11929720	      2.08849471	      0.36987951	      0.00000000	      0.19667207	     -0.00000000	      0.65810998	     -0.00000000
      0.06300000	      0.51992714	    757.48037978	      2.04823123	      0.36986043	      0.00000000	      0.19666817	     -0.00000000	      0.65838301	     -0.00000000
